<svg width="500" height="440" viewBox="0 0 500 440" fill="none" xmlns="http://www.w3.org/2000/svg">
<path d="M325.856 19.3137H474.537C487.322 19.3137 497.685 30.197 497.685 43.6231V291.645C497.685 305.071 487.322 315.954 474.537 315.954H325.856C313.072 315.954 302.708 305.071 302.708 291.645V43.6231C302.708 30.197 313.072 19.3137 325.856 19.3137Z" fill="#2F59A5" stroke="white" stroke-miterlimit="10"/>
<path d="M279.766 19.3137H474.743V265.308H279.766V19.3137Z" fill="#2F59A5" stroke="white" stroke-miterlimit="10"/>
<path d="M473.171 265.305H279.771V328.009H473.171C479.674 328.009 485.907 324.705 490.507 318.827C495.104 312.947 497.685 304.971 497.685 296.657C497.685 288.341 495.104 280.368 490.507 274.487C485.907 268.609 479.674 265.305 473.171 265.305Z" fill="white" stroke="white" stroke-miterlimit="10"/>
<path d="M279.474 278.362H458.447M279.463 295.823H460.28M279.454 311.345H456.581" stroke="#2F59A5" stroke-miterlimit="10"/>
<path d="M298.259 42.2693H455.481V142.074H298.259V42.2693Z" fill="white"/>
<path d="M464.882 2.43099H445.928C443.919 2.43099 441.991 3.18944 440.57 4.53861C439.146 5.88778 438.347 7.72071 438.347 9.629V18.0255H472.463V9.629C472.463 7.72071 471.664 5.88778 470.243 4.53861C468.764 3.1671 466.855 2.41667 464.882 2.43099ZM385.287 317.4H423.762C425.396 317.4 427.016 317.072 428.526 316.433C430.03 315.796 431.402 314.858 432.565 313.671C433.722 312.49 434.639 311.085 435.264 309.541C435.891 307.995 436.213 306.34 436.213 304.667V265.305H470.16V317.4C470.16 321.961 469.282 326.478 467.576 330.69C465.859 334.921 463.357 338.75 460.218 341.955C457.047 345.192 453.306 347.75 449.204 349.484C445.075 351.23 440.664 352.127 436.213 352.126H385.287L404.178 334.767L385.287 317.4Z" fill="#69BD97" stroke="white" stroke-miterlimit="10"/>
<path d="M80.5649 118.678H245.968C248.423 118.678 250.779 119.703 252.515 121.526C254.251 123.35 255.227 125.823 255.227 128.402V369.381C255.227 371.96 254.251 374.433 252.515 376.257C250.779 378.081 248.423 379.105 245.968 379.105H80.5649C78.1092 379.105 75.7541 378.081 74.0176 376.257C72.2812 374.433 71.3057 371.96 71.3057 369.381V128.402C71.3057 125.823 72.2812 123.35 74.0176 121.526C75.7541 119.703 78.1092 118.678 80.5649 118.678Z" fill="#69BD97"/>
<path d="M67.2268 106.208H234.113C236.569 106.208 238.924 107.232 240.661 109.056C242.397 110.879 243.373 113.353 243.373 115.932V356.913C243.373 359.492 242.397 361.965 240.661 363.789C238.924 365.612 236.569 366.637 234.113 366.637H67.2268C64.7711 366.637 62.416 365.612 60.6795 363.789C58.9431 361.965 57.9675 359.492 57.9675 356.913V115.934C57.9675 113.355 58.9431 110.882 60.6795 109.058C62.416 107.235 64.7711 106.21 67.2268 106.21V106.208Z" fill="white" stroke="#2F59A5" stroke-miterlimit="10"/>
<path d="M311.951 54.3438H443.618V130.974H311.951V54.3438Z" fill="#69BD97" stroke="#2F59A5" stroke-miterlimit="10"/>
<path d="M189.901 376.188L183.22 374.095L182.215 88.4109L188.301 88.4474L189.901 376.188Z" fill="#69BD97" stroke="#2F59A5" stroke-miterlimit="10"/>
<path d="M195.243 377.097L189.148 377.056L187.546 88.9553L193.641 88.9869L199.736 89.0307L201.338 377.129L195.243 377.097Z" fill="#69BD97" stroke="#2F59A5" stroke-miterlimit="10"/>
<path d="M207.986 376.39L201.13 376.346L199.532 88.6077L206.387 88.649L207.986 376.39Z" fill="#75D69C" stroke="#2F59A5" stroke-miterlimit="10"/>
<path d="M196.662 411.692C194.999 411.633 193.339 411.864 191.748 412.375L183.292 375.106L189.271 370.225L195.567 375.541L201.539 370.655L207.843 375.964L201.655 412.756C200.055 412.127 198.369 411.768 196.662 411.692Z" fill="white" stroke="#2F59A5" stroke-miterlimit="10"/>
<path d="M201.25 413.452L195.574 437.112L192 413.897C195.046 412.683 198.299 412.525 201.25 413.452Z" fill="#2F59A5" stroke="#2F59A5" stroke-miterlimit="10" stroke-linejoin="round"/>
<path d="M182.215 88.4034L206.523 88.5541L206.329 53.5583C206.304 50.1618 205.007 46.912 202.718 44.5128C200.433 42.1085 197.338 40.746 194.104 40.7206C192.514 40.7083 190.937 41.0277 189.465 41.6604C187.993 42.293 186.656 43.2262 185.53 44.4059C184.407 45.5881 183.518 46.9928 182.916 48.5384C182.313 50.0841 182.009 51.74 182.021 53.4101L182.215 88.4034Z" fill="white" stroke="#69BD97" stroke-miterlimit="10"/>
<path d="M181.569 79.2146L205.685 77.0583" stroke="#69BD97" stroke-miterlimit="10"/>
</svg>
