<svg width="22" height="20" viewBox="0 0 22 20" fill="none" xmlns="http://www.w3.org/2000/svg">
<path d="M20.625 1.25204C20.625 0.748187 20.2898 0.291205 19.7742 0.0959142C19.2586 -0.0993771 18.6699 0.00998601 18.2746 0.365416L16.4012 2.07226C14.3387 3.94706 11.5414 5.00163 8.62383 5.00163H8.25H6.875H2.75C1.2332 5.00163 0 6.1226 0 7.50136V11.251C0 12.6297 1.2332 13.7507 2.75 13.7507V18.7501C2.75 19.4415 3.36445 20 4.125 20H6.875C7.63555 20 8.25 19.4415 8.25 18.7501V13.7507H8.62383C11.5414 13.7507 14.3387 14.8053 16.4012 16.68L18.2746 18.383C18.6699 18.7423 19.2586 18.8478 19.7742 18.6525C20.2898 18.4572 20.625 18.0041 20.625 17.4964V11.7353C21.4242 11.3916 22 10.4659 22 9.37615C22 8.28643 21.4242 7.36075 20.625 7.01704V1.25204ZM17.875 4.24781V9.37615V14.5045C15.3484 12.4149 12.0527 11.251 8.62383 11.251H8.25V7.50136H8.62383C12.0527 7.50136 15.3484 6.33742 17.875 4.24781Z" fill="#2F59A5"/>
</svg>
